# xmcd CD database file
#
# Track frame offsets:
#	150
#	38187
#	66436
#	91696
#	132798
#	156239
#	184480
#
# Disc length: 2911 seconds
#
# Revision: 0
# Processed by: cddbd v1.5.2PL0 Copyright (c) Steve Scherf et al.
# Submitted via: CDex 1.51
#
DISCID=5c0b5d07
DTITLE=Hal Galper - Now Hear This
DYEAR=1977
DGENRE=Jazz
TTITLE0=Now Hear This
TTITLE1=Shadow Waltz
TTITLE2=Red Eye Special
TTITLE3=First Song In The Day
TTITLE4=Mr. Fixit
TTITLE5=Bemsha Swing
TTITLE6=First Song In The Day (alt. take)
EXTD=YEAR: 1977
EXTT0=
EXTT1=
EXTT2=
EXTT3=
EXTT4=
EXTT5=
EXTT6=
PLAYORDER=
